# xmcd
# Track frame offsets:
# 150
# 10400
# 19505
# 31650
# 40912
# 52295
# 62212
# 77135
# 85687
# 95587
# 111420
# 129215
# 138480
# 149025
#
# Disc length: 2165 seconds
# Revision: 0
# Processed by: cddbd v1.5.2PL0 Copyright (c) Steve Scherf et al.
# Submitted via: VisiTrax 2.11.2.271 - For more info visit www.synapsa.com
#
DISCID=c008730e
DTITLE=Dixie and His White Rose Orchestra - The White Rose Album
DYEAR=1996
DGENRE=Country
TTITLE0=Stay A Little Longer
TTITLE1=Big Balls In Cow Town
TTITLE2=Secret Love
TTITLE3=Yearning
TTITLE4=San Anotonio Rose
TTITLE5=Party For The Old Folks
TTITLE6=Frank Bourke Medley I
TTITLE7=I've Just Got To Be A Cowboy
TTITLE8=Country Queen
TTITLE9=Frank Bourke Medley II
TTITLE10=Faded Love
TTITLE11=Roly Poly
TTITLE12=Maidens Prayer
TTITLE13=Going Away Party
EXTD=
EXTT0=
EXTT1=
EXTT2=
EXTT3=
EXTT4=
EXTT5=
EXTT6=
EXTT7=
EXTT8=
EXTT9=
EXTT10=
EXTT11=
EXTT12=
EXTT13=
PLAYORDER=
